:SAMPLES-PER-SECOND 30
:FULLY-SPECIFIED
:DEGREES
509
root  -22.5344 25.5943 -3.39464 176.706 -3.65805 59.3952
Spine  -1.08311 10.1223 36.5214
Spine1  -7.17334 6.66152 -7.36511
Neck  3.97569e-016 0 -2.38542e-015
Head  -0.497132 -13.3876 18.626
R_Clavicle  0.795119 12.2308 3.40514
R_UpperArm  44.5576 54.0876 1.73603
R_Forearm  10.4644 -8.81374 7.37466
R_Hand  -3.33589 9.94314 -35.0591
L_Clavicle  0.532123 -9.6527 -1.20848
L_UpperArm  15.5545 -34.131 -31.6922
L_Forearm  -11.8829 20.5627 25.7151
L_Hand  -0.704653 4.96318 -7.41791
L_Thigh  -3.99206 36.3579 31.9753
L_Calf  18.5659 -3.34589 24.6968
L_Foot  -5.64969 -21.6476 -8.37123
L_Toe0  -1.71605 0.232987 2.36615
R_Thigh  -36.2064 -12.0221 47.7185
R_Calf  -18.3882 2.19787 6.86506
R_Foot  7.84798 21.561 14.4627
R_Toe0  -1.5009 -0.268081 -17.0054
510
root  -22.5249 23.9326 -1.92461 -178.301 -2.15149 64.2651
Spine  4.39925 15.6856 40.475
Spine1  -4.22979 -2.40167 -7.39855
Neck  3.97569e-016 0 -2.38542e-015
Head  -5.08159 -14.2576 18.7803
R_Clavicle  0.579256 12.0985 2.68559
R_UpperArm  41.2405 53.1993 1.75071
R_Forearm  6.32877 -15.3406 13.2793
R_Hand  -3.55292 9.28197 -37.1092
L_Clavicle  -0.0335752 -9.74176 1.33885
L_UpperArm  9.98071 -34.3645 -33.6209
L_Forearm  -12.5094 15.5064 18.6797
L_Hand  -0.58005 6.361 -5.37933
L_Thigh  -1.77435 37.7728 31.9483
L_Calf  18.4292 -3.46253 25.6238
L_Foot  -6.29169 -24.6456 -6.70372
L_Toe0  -0.247287 0.0364656 -3.16769
R_Thigh  -31.9539 -13.3054 48.2449
R_Calf  -26.3517 -2.204 -6.74663
R_Foot  9.42079 23.2146 21.1335
R_Toe0  -0.913652 -0.227282 -15.1033
511
root  -22.5365 22.8056 -0.936743 -176.184 -0.869019 65.3215
Spine  9.28846 19.0694 44.3823
Spine1  -0.966268 -10.4262 -8.37808
Neck  3.97569e-016 0 -2.38542e-015
Head  -6.43117 -16.7466 16.3492
R_Clavicle  0.192679 13.1939 1.3727
R_UpperArm  36.1129 55.3052 3.89475
R_Forearm  1.6708 -21.805 18.1484
R_Hand  -3.97902 10.735 -38.5359
L_Clavicle  -0.354133 -10.0842 2.80024
L_UpperArm  -4.12139 -35.2507 -30.3818
L_Forearm  -12.837 10.8733 12.807
L_Hand  -0.555986 6.45143 -5.08793
L_Thigh  3.1629 38.9098 33.4872
L_Calf  15.424 -3.64235 27.0795
L_Foot  -7.05906 -27.8242 -5.2999
L_Toe0  0.582401 0.0324733 -6.4311
R_Thigh  -27.6075 -13.821 50.7171
R_Calf  -29.5851 -5.13616 -16.0553
R_Foot  7.82878 19.6776 24.2512
R_Toe0  -1.41849 -0.153492 -13.0718
512
root  -22.6081 22.3106 -0.458915 -174.77 -0.185303 63.7122
Spine  11.894 19.2508 46.8637
Spine1  1.36534 -13.9106 -9.33653
Neck  3.97569e-016 0 -2.38542e-015
Head  -4.13259 -19.9459 12.6793
R_Clavicle  -0.651651 16.7097 -1.06978
R_UpperArm  46.4463 51.8049 16.4382
R_Forearm  -5.28241 -17.2203 8.88392
R_Hand  -6.31658 19.7688 -42.7254
L_Clavicle  -0.300044 -8.48979 2.39119
L_UpperArm  -22.9497 -36.0093 -22.1954
L_Forearm  -15.2092 6.87597 7.99295
L_Hand  -0.6466 5.24763 -6.62691
L_Thigh  6.70837 38.7844 36.7516
L_Calf  14.0679 -3.72346 27.7381
L_Foot  -7.50617 -30.042 -6.34796
L_Toe0  0.505159 0.0344455 -6.1361
R_Thigh  -26.5747 -14.1208 53.5293
R_Calf  -29.9059 -6.10376 -19.2476
R_Foot  7.43437 18.7288 26.1296
R_Toe0  -1.409 -0.166146 -13.5105
513
root  -22.6279 22.1474 -0.28472 -172.21 0.200867 61.8556
Spine  12.2465 18.1494 47.545
Spine1  1.99989 -13.3887 -8.83269
Neck  3.97569e-016 0 -2.38542e-015
Head  -0.0601793 -21.2518 9.68416
R_Clavicle  -1.59994 21.0706 -3.31221
R_UpperArm  54.5279 45.9461 22.4343
R_Forearm  -8.21752 -11.0253 5.26617
R_Hand  -10.4152 24.4676 -53.6131
L_Clavicle  -0.234416 -3.73663 2.00567
L_UpperArm  -39.8841 -36.3509 -12.5818
L_Forearm  -20.9153 4.46067 5.15552
L_Hand  -0.736986 3.51727 -9.06621
L_Thigh  6.90873 37.2989 40.1265
L_Calf  15.1938 -3.78772 28.2097
L_Foot  -7.31566 -29.575 -7.40448
L_Toe0  0.505168 0.0344334 -6.1361
R_Thigh  -27.6824 -15.0277 54.7733
R_Calf  -28.1391 -6.45536 -20.4119
R_Foot  8.44735 20.1652 27.8064
R_Toe0  -1.43136 -0.172183 -13.7501
514
root  -22.5826 22.0736 -0.361754 -169.006 1.12213 61.0182
Spine  12.0651 17.8433 47.9672
Spine1  1.81492 -12.8652 -7.9075
Neck  3.97569e-016 0 -2.38542e-015
Head  3.22173 -19.1381 8.85897
R_Clavicle  -1.53186 21.7931 -3.09415
R_UpperArm  58.2703 43.9591 21.5265
R_Forearm  -9.8398 -11.1304 8.20225
R_Hand  -13.6717 23.426 -65.7435
L_Clavicle  -0.227188 0.431468 1.58146
L_UpperArm  -52.1983 -34.6796 -4.64889
L_Forearm  -26.3141 4.21676 4.87123
L_Hand  -0.772223 1.82926 -11.7586
L_Thigh  7.33408 35.2726 44.0019
L_Calf  17.7389 -3.6332 26.9706
L_Foot  -6.94026 -27.8717 -7.48369
L_Toe0  0.505175 0.0344053 -6.13611
R_Thigh  -28.4018 -16.7802 54.2898
R_Calf  -26.2728 -6.85211 -21.7558
R_Foot  9.74156 22.2139 28.0664
R_Toe0  -1.25248 -0.125654 -11.8268
